<svg width="1088" height="261" viewBox="0 0 1088 261" fill="none" xmlns="http://www.w3.org/2000/svg">
<path fill-rule="evenodd" clip-rule="evenodd" d="M66.4713 44.417C62.746 46.081 58.444 50.596 57.0396 54.315C55.3134 58.886 55.5843 203.126 57.3265 207.298C61.9783 218.436 59.6034 218.156 146.508 217.797L218.548 217.5L222.567 214.839C230.833 209.366 230.396 214.107 230.396 129.927V55.354L227.713 51.298C221.943 42.575 226.259 42.995 142.87 43.039C83.7713 43.071 68.8852 43.339 66.4713 44.417ZM266.379 44.573C255.333 50.32 255.884 45.816 255.884 130.403C255.884 206.771 255.907 207.197 260.199 211.882C265.956 218.165 263.101 217.956 343.344 217.956C426.169 217.956 421.89 218.366 427.489 209.902L430.304 205.647L430.579 132.774C430.9 47.781 431.132 49.779 420.388 44.896C414.605 42.269 271.385 41.968 266.379 44.573ZM466.817 44.583C455.146 49.648 455.712 45.069 456.023 131.825L456.292 206.657L459.175 210.437C465.18 218.313 461.191 217.956 543.252 217.956C642.702 217.956 630.712 229.946 630.712 130.5C630.712 46.341 631.149 49.903 620.217 44.881C614.638 42.318 472.672 42.043 466.817 44.583ZM666.196 44.881C655.259 49.905 655.696 46.31 655.722 130.718C655.752 229.971 643.735 218.008 743.378 217.978C842.572 217.948 830.62 229.933 830.62 130.5C830.62 46.341 831.057 49.903 820.125 44.881C813.941 42.039 672.38 42.039 666.196 44.881ZM866.104 44.881C855.167 49.905 855.604 46.31 855.63 130.718C855.66 229.958 843.681 218 943.068 218C1042.67 218 1030.66 230.234 1030.3 129.175L1030.03 54.343L1027.15 50.563C1021.14 42.687 1025.13 43.044 943.068 43.044C874.38 43.044 869.867 43.152 866.104 44.881ZM151.658 94.066L156.978 106.632L170.01 107.745C189.876 109.442 190.596 111.412 175.956 124C170.519 128.675 166.037 133.023 165.999 133.661C165.959 134.3 167.05 139.584 168.424 145.403C173.191 165.587 171.844 166.695 154.931 156.5C141.918 148.656 144.381 148.656 131.327 156.5C113.22 167.38 112.72 166.639 119.383 138.784L120.75 133.068L110.353 123.961C95.5339 110.981 96.0397 109.532 116.02 107.71L129.285 106.5L134.201 95C142.384 75.853 143.915 75.771 151.658 94.066ZM351.645 94.072L357.016 106.644L369.671 107.74C390.365 109.532 390.943 111.062 375.803 124C364.45 133.702 365.093 131.276 369.197 148.939C373.013 165.362 371.18 166.35 354.997 156.595C341.8 148.64 344.252 148.65 331.312 156.5C316.475 165.5 313.394 165.045 315.852 154.215C316.564 151.072 317.935 145.004 318.897 140.732L320.645 132.963L310.255 123.862C295.499 110.937 295.947 109.661 315.912 107.769L329.301 106.5L334.144 95.018C342.229 75.846 343.824 75.76 351.645 94.072ZM551.632 94.076L557.029 106.652L569.631 107.744C589.813 109.492 590.765 111.323 577.446 122.761C564.452 133.921 565.317 131.875 568.227 144.586C569.6 150.589 570.987 156.445 571.309 157.601C571.948 159.893 569.563 163 567.166 163C566.378 163 560.9 160.076 554.993 156.503C542.023 148.658 544.473 148.658 531.296 156.5C514.258 166.64 513.165 165.861 517.607 146.753L520.687 133.5L516.924 130C514.854 128.075 510.148 123.777 506.467 120.449C502.785 117.12 499.772 113.944 499.772 113.39C499.772 109.944 502.399 109.017 515.722 107.765L529.173 106.5L533.91 95.5C542.44 75.698 543.703 75.597 551.632 94.076ZM750.649 91.686C753.127 97.289 755.604 102.914 756.154 104.186C757.085 106.341 758.082 106.587 770.648 107.765C781.079 108.742 784.425 109.41 785.391 110.706C787.36 113.347 787.016 113.985 780.429 119.912C777.014 122.985 772.308 127.3 769.972 129.5L765.725 133.5L768.678 146.33C773.14 165.714 771.863 166.627 754.683 156.339L743.559 149.678L740.36 151.33C738.602 152.239 733.34 155.234 728.667 157.986C714.552 166.299 713.308 164.978 717.668 146.316L720.662 133.5L716.381 129.5C714.028 127.3 709.307 122.985 705.891 119.912C699.3 113.981 698.964 113.357 700.93 110.681C701.914 109.339 705.042 108.734 715.693 107.821L729.207 106.664L734.095 95.082C741.98 76.402 743.729 76.043 750.649 91.686ZM946.25 82.25C946.69 82.938 949.309 88.675 952.071 95L957.092 106.5L970.571 107.765C983.922 109.018 986.548 109.942 986.548 113.39C986.548 113.944 983.536 117.12 979.853 120.449C976.172 123.777 971.463 128.075 969.39 130L965.622 133.5L968.613 146.27C973.143 165.614 971.756 166.647 954.879 156.502C941.849 148.669 944.461 148.669 931.426 156.5C914.579 166.621 913.339 165.725 917.679 146.571C921.071 131.598 921.959 134 908.874 122.761C895.514 111.287 896.355 109.477 915.824 107.805L929.173 106.659L934.067 95.079C939.832 81.442 940.117 81 943.131 81C944.407 81 945.809 81.563 946.25 82.25Z" fill="#00B679"/>
</svg>
