<?xml version="1.0" encoding="iso-8859-1"?>
<!-- Generator: Adobe Illustrator 17.1.0, SVG Export Plug-In . SVG Version: 6.00 Build 0)  -->
<!DOCTYPE svg PUBLIC "-//W3C//DTD SVG 1.1//EN" "http://www.w3.org/Graphics/SVG/1.1/DTD/svg11.dtd">
<svg version="1.1" id="Capa_1" xmlns="http://www.w3.org/2000/svg" xmlns:xlink="http://www.w3.org/1999/xlink" x="0px" y="0px"
	 viewBox="0 0 185.533 185.533" style="enable-background:new 0 0 185.533 185.533;" xml:space="preserve">
<path style="fill:#000002;" d="M177.673,171.44h-85.75c-0.034,0-0.068,0-0.103,0H7.95c-1.381,0-2.5-1.119-2.5-2.5V94.375H2.5
	c-1.381,0-2.5-1.119-2.5-2.5V32.489c0-1.381,1.119-2.5,2.5-2.5H38V16.593c0-1.381,1.119-2.5,2.5-2.5h15.669
	c1.381,0,2.5,1.119,2.5,2.5v13.396h72.679l1.475-1.904c0.473-0.611,1.203-0.969,1.976-0.969s1.503,0.358,1.976,0.969l48.235,62.259
	c0.584,0.754,0.688,1.775,0.269,2.632s-1.291,1.399-2.245,1.399h-2.86v74.565C180.173,170.321,179.054,171.44,177.673,171.44z
	 M94.423,166.44h80.75V91.875c0-1.381,1.119-2.5,2.5-2.5h0.261l-43.136-55.677L91.663,89.375h0.26c1.381,0,2.5,1.119,2.5,2.5V166.44
	z M83.421,166.44h6.002V94.375h-2.859c-0.034,0-0.068,0-0.103,0H10.45v72.065h49.611v-30.983c0-1.381,1.119-2.5,2.5-2.5h18.359
	c1.381,0,2.5,1.119,2.5,2.5V166.44z M65.062,166.421h13.359v-28.464H65.062V166.421z M5,89.375h80.236l42.136-54.387H58.668v19.3
	c0,1.381-1.119,2.5-2.5,2.5H40.5c-1.381,0-2.5-1.119-2.5-2.5v-19.3H5V89.375z M43,51.789h10.669V19.093H43V51.789z M162.184,160.341
	h-18.359c-1.381,0-2.5-1.119-2.5-2.5v-22.384c0-1.381,1.119-2.5,2.5-2.5h18.359c1.381,0,2.5,1.119,2.5,2.5v22.384
	C164.684,159.221,163.564,160.341,162.184,160.341z M146.324,155.341h13.359v-17.384h-13.359V155.341z M125.772,160.341h-18.359
	c-1.381,0-2.5-1.119-2.5-2.5v-22.384c0-1.381,1.119-2.5,2.5-2.5h18.359c1.381,0,2.5,1.119,2.5,2.5v22.384
	C128.272,159.221,127.153,160.341,125.772,160.341z M109.913,155.341h13.359v-17.384h-13.359V155.341z M47.958,160.341H20.97
	c-1.381,0-2.5-1.119-2.5-2.5v-22.384c0-1.381,1.119-2.5,2.5-2.5h26.989c1.381,0,2.5,1.119,2.5,2.5v22.384
	C50.458,159.221,49.339,160.341,47.958,160.341z M23.47,155.341h21.989v-17.384H23.47V155.341z M162.184,126.048h-18.359
	c-1.381,0-2.5-1.119-2.5-2.5v-22.383c0-1.381,1.119-2.5,2.5-2.5h18.359c1.381,0,2.5,1.119,2.5,2.5v22.383
	C164.684,124.928,163.564,126.048,162.184,126.048z M146.324,121.048h13.359v-17.383h-13.359V121.048z M125.772,126.048h-18.359
	c-1.381,0-2.5-1.119-2.5-2.5v-22.383c0-1.381,1.119-2.5,2.5-2.5h18.359c1.381,0,2.5,1.119,2.5,2.5v22.383
	C128.272,124.928,127.153,126.048,125.772,126.048z M109.913,121.048h13.359v-17.383h-13.359V121.048z M80.921,126.048H62.562
	c-1.381,0-2.5-1.119-2.5-2.5v-22.383c0-1.381,1.119-2.5,2.5-2.5h18.359c1.381,0,2.5,1.119,2.5,2.5v22.383
	C83.421,124.928,82.302,126.048,80.921,126.048z M65.062,121.048h13.359v-17.383H65.062V121.048z M47.958,126.048H20.97
	c-1.381,0-2.5-1.119-2.5-2.5v-22.383c0-1.381,1.119-2.5,2.5-2.5h26.989c1.381,0,2.5,1.119,2.5,2.5v22.383
	C50.458,124.928,49.339,126.048,47.958,126.048z M23.47,121.048h21.989v-17.383H23.47V121.048z"/>
<g>
</g>
<g>
</g>
<g>
</g>
<g>
</g>
<g>
</g>
<g>
</g>
<g>
</g>
<g>
</g>
<g>
</g>
<g>
</g>
<g>
</g>
<g>
</g>
<g>
</g>
<g>
</g>
<g>
</g>
</svg>
