<svg id="Capa_1" enable-background="new 0 0 512 512" height="512" viewBox="0 0 512 512" width="512" xmlns="http://www.w3.org/2000/svg"><g><path d="m135.562 301.252h210.75v30h-210.75z"/><path d="m138.214 361.502h84.946v30h-84.946z"/><path d="m496.938 135.5c0-74.715-60.785-135.5-135.5-135.5-58.899 0-109.133 37.779-127.764 90.375h-158.361v331.375h-60.25v45.125c0 24.882 20.243 45.125 45.125 45.125h301.25c24.882 0 45.125-20.243 45.125-45.125v-203.611c52.595-18.631 90.375-68.865 90.375-127.764zm-436.75 346.5c-8.34 0-15.125-6.785-15.125-15.125v-15.125h271.25v15.125c0 5.303.919 10.395 2.607 15.125zm316.374-15.125c0 8.34-6.785 15.125-15.125 15.125s-15.125-6.785-15.125-15.125v-45.125h-241v-301.375h121.474c-.554 4.967-.849 10.012-.849 15.125 0 15.862 2.749 31.092 7.78 45.25h-98.155v30h113.247c7.663 11.432 17.02 21.634 27.707 30.252h-140.954v30h225.875v-.002h.001c5.113 0 10.158-.294 15.125-.849v196.724zm-15.124-225.875c-58.173 0-105.5-47.327-105.5-105.5s47.327-105.5 105.5-105.5 105.5 47.327 105.5 105.5-47.328 105.5-105.5 105.5z"/><path d="m427.983 103.948-36.64-5.324-16.386-33.202h-27.039l-16.386 33.202-36.64 5.324-8.356 25.716 26.514 25.844-6.259 36.493 21.876 15.892 32.771-17.229 32.772 17.229 21.874-15.893-6.259-36.493 26.514-25.844zm-46.578 63.32-19.967-10.497-19.967 10.497 3.813-22.234-16.154-15.746 22.324-3.244 9.984-20.229 9.984 20.229 22.324 3.244-16.154 15.746z"/></g></svg>