<svg id="_x31_px" enable-background="new 0 0 24 24" height="512" viewBox="0 0 24 24" width="512" xmlns="http://www.w3.org/2000/svg"><g><path d="m17.5 21.5c-.276 0-.5-.224-.5-.5v-.75c0-.276.224-.5.5-.5s.5.224.5.5v.75c0 .276-.224.5-.5.5z"/></g><g><path d="m17.75 20.5h-1.75c-.276 0-.5-.224-.5-.5s.224-.5.5-.5h1.75c.414 0 .75-.337.75-.75s-.336-.75-.75-.75h-.5c-.965 0-1.75-.785-1.75-1.75s.785-1.75 1.75-1.75h1.75c.276 0 .5.224.5.5s-.224.5-.5.5h-1.75c-.414 0-.75.337-.75.75s.336.75.75.75h.5c.965 0 1.75.785 1.75 1.75s-.785 1.75-1.75 1.75z"/></g><g><path d="m17.5 15.25c-.276 0-.5-.224-.5-.5v-.75c0-.276.224-.5.5-.5s.5.224.5.5v.75c0 .276-.224.5-.5.5z"/></g><g><path d="m17.5 24c-3.584 0-6.5-2.916-6.5-6.5s2.916-6.5 6.5-6.5 6.5 2.916 6.5 6.5-2.916 6.5-6.5 6.5zm0-12c-3.033 0-5.5 2.468-5.5 5.5s2.467 5.5 5.5 5.5 5.5-2.468 5.5-5.5-2.467-5.5-5.5-5.5z"/></g><g><path d="m8.5 20h-3.5c-1.103 0-2-.897-2-2v-7h-2c-.561 0-1-.439-1-1 0-.281.122-.559.326-.742l9.834-9.124c.191-.178.488-.178.68 0l3.16 2.93v-1.564c0-.276.224-.5.5-.5h3c.276 0 .5.224.5.5v5.273l1.651 1.541c.202.188.212.505.024.706-.189.202-.505.213-.707.024l-1.81-1.689c-.1-.094-.158-.226-.158-.365v-4.99h-2v2.21c0 .199-.118.379-.3.458-.183.079-.395.044-.54-.092l-3.66-3.394-9.5 8.814 2.5.004c.276 0 .5.224.5.5v7.5c0 .552.449 1 1 1h3.5c.276 0 .5.224.5.5s-.224.5-.5.5z"/></g></svg>