<svg viewBox="0 -69 512 512" xmlns="http://www.w3.org/2000/svg"><path d="m236 283.226562c-4.140625 0-7.5 3.355469-7.5 7.5v15.164063c0 4.144531 3.359375 7.5 7.5 7.5s7.5-3.355469 7.5-7.5v-15.164063c0-4.144531-3.359375-7.5-7.5-7.5zm0 0"/><path d="m127.09375 171.5625h-29.1875c-6.890625 0-12.5 5.605469-12.5 12.5v75.289062c0 6.894532 5.609375 12.5 12.5 12.5h29.1875c6.890625 0 12.5-5.605468 12.5-12.5v-75.289062c0-6.894531-5.609375-12.5-12.5-12.5zm-2.5 85.289062h-24.1875v-70.289062h24.1875zm0 0"/><path d="m414.09375 171.5625h-29.1875c-6.890625 0-12.5 5.605469-12.5 12.5v75.289062c0 6.894532 5.609375 12.5 12.5 12.5h29.1875c6.890625 0 12.5-5.605468 12.5-12.5v-75.289062c0-6.894531-5.609375-12.5-12.5-12.5zm-2.5 85.289062h-24.1875v-70.289062h24.1875zm0 0"/><path d="m259.269531 111.199219h-6.539062c-16.226563 0-29.425781 13.203125-29.425781 29.429687v28.507813c0 5.949219 4.839843 10.789062 10.789062 10.789062h43.8125c5.949219 0 10.789062-4.839843 10.789062-10.789062v-28.507813c0-16.226562-13.199218-29.429687-29.425781-29.429687zm-20.96875 53.726562v-24.296875c0-7.957031 6.472657-14.429687 14.429688-14.429687h6.539062c7.953125 0 14.425781 6.472656 14.425781 14.429687v24.296875zm0 0"/><path d="m504.5 358.132812h-35.253906v-221.367187h30.253906c4.066406 0 7.546875-1.914063 9.316406-5.121094 1.765625-3.207031 1.523438-7.175781-.648437-10.613281l-61.351563-97.0625c-2.824218-4.472656-8.71875-7.71875-14.007812-7.71875h-157.9375l-9.90625-11.949219c-2.265625-2.734375-5.535156-4.300781-8.964844-4.300781-3.433594 0-6.699219 1.566406-8.964844 4.300781l-9.90625 11.949219h-157.9375c-5.292968 0-11.183594 3.246094-14.011718 7.71875l-61.347657 97.0625c-2.171875 3.441406-2.414062 7.40625-.648437 10.613281 1.769531 3.207031 5.25 5.121094 9.316406 5.121094h30.253906v159.992187c-7.542968 7.214844-12.253906 17.359376-12.253906 28.597657 0 2.058593.167969 4.078125.472656 6.054687h-3.183594c-6.890624 0-12.5 5.609375-12.5 12.5v14.222656h-7.789062c-4.140625 0-7.5 3.359376-7.5 7.5 0 4.144532 3.359375 7.5 7.5 7.5h497c4.140625 0 7.5-3.355468 7.5-7.5 0-4.140624-3.359375-7.5-7.5-7.5zm-30.785156-263.535156h-133.890625l-9.945313-12h136.25zm-24.652344-39 7.585938 12h-139.207032l-9.949218-12zm-16.332031-24.347656c.410156.070312 1.171875.492188 1.449219.800781l5.402343 8.546875h-144.527343l-7.746094-9.347656zm-369.792969 24.347656h50.0625c4.140625 0 7.5-3.359375 7.5-7.5 0-4.144531-3.359375-7.5-7.5-7.5h-40.585938l5.40625-8.550781c.277344-.304687 1.039063-.726563 1.445313-.796875h145.425781l-7.75 9.347656h-68.941406c-4.140625 0-7.5 3.355469-7.5 7.5 0 4.140625 3.359375 7.5 7.5 7.5h56.507812l-9.949218 12h-139.207032zm-17.066406 27h136.25l-9.949219 12h-133.886719zm-24.757813 39.167969 7.691407-12.167969h130.933593l-10.089843 12.167969zm144.660157 163.601563c-5.679688-3.238282-12.207032-5.085938-19.085938-5.085938-13.511719 0-26.039062 7.195312-33.03125 18.460938-1.875-.367188-3.792969-.550782-5.742188-.550782-2.800781 0-5.511718.394532-8.085937 1.121094-7.402344-8.402344-18.214844-13.546875-29.742187-13.546875-4.304688 0-8.449219.703125-12.332032 1.980469v-150.980469h79.457032c-2.722657 3.289063-3.390626 7.28125-1.792969 10.683594 1.601562 3.40625 5.109375 5.441406 9.382812 5.441406h20.972657zm-87.535157 46.042968h-31.96875c-.492187-1.9375-.769531-3.964844-.769531-6.054687 0-13.558594 11.03125-24.589844 24.585938-24.589844 6.191406 0 12.050781 2.394531 16.5 6.414063-5.28125 5.394531-8.542969 12.769531-8.542969 20.894531 0 1.128906.070312 2.242187.195312 3.335937zm87.535157 26.722656h-135.484376v-11.722656h135.484376zm.003906-26.722656h-72.34375c-.25-1.070312-.390625-2.1875-.390625-3.335937 0-8.207031 6.671875-14.882813 14.871093-14.882813 2.21875 0 4.355469.480469 6.351563 1.421875 1.886719.894531 4.054687.957031 5.992187.1875 1.9375-.773437 3.460938-2.320312 4.214844-4.265625 3.519532-9.125 12.453125-15.253906 22.21875-15.253906 7.707032 0 14.699219 3.78125 19.085938 9.648438zm-10.011719-193.519531 100.234375-120.902344 100.234375 120.902344h-13.226563l-81.234374-97.980469c-1.425782-1.714844-3.542969-2.710937-5.773438-2.710937-2.234375 0-4.351562.996093-5.773438 2.714843l-81.234374 97.976563zm131.992187 220.242187h-63.515624v-116.402343h63.515624zm166.488282 0h-108.019532v-90.566406c0-4.140625-3.359374-7.5-7.5-7.5-4.140624 0-7.5 3.359375-7.5 7.5v90.566406h-28.46875v-118.902343c0-6.890625-5.605468-12.5-12.5-12.5h-68.515624c-6.894532 0-12.5 5.609375-12.5 12.5v118.902343h-28.46875v-210.949218l75.226562-90.734375 75.226562 90.734375v84.882812c0 4.144532 3.359376 7.5 7.5 7.5 4.140626 0 7.5-3.355468 7.5-7.5v-79.175781h20.96875c4.273438 0 7.78125-2.035156 9.382813-5.441406 1.601563-3.402344.929687-7.394531-1.789063-10.683594h29.210938c4.140625 0 7.5-3.355469 7.5-7.5 0-4.140625-3.359375-7.5-7.5-7.5h-41.648438l-10.089843-12.167969h130.933593l7.691407 12.167969h-50.886719c-4.140625 0-7.5 3.359375-7.5 7.5 0 4.144531 3.359375 7.5 7.5 7.5h14.246094zm0 0"/></svg>