<svg id="Capa_1" enable-background="new 0 0 512 512" height="512" viewBox="0 0 512 512" width="512" xmlns="http://www.w3.org/2000/svg"><g><path d="m165.688 241.002h240.875v30h-240.875z"/><path d="m165.688 301.252h240.875v30h-240.875z"/><path d="m168.339 361.502h115.071v30h-115.071z"/><path d="m105.438 0v421.75h-60.25v45.125c0 24.882 20.243 45.125 45.125 45.125h331.375c24.882 0 45.125-20.243 45.125-45.125v-466.875zm-15.125 482c-8.34 0-15.125-6.785-15.125-15.125v-15.125h301.375v15.125c0 5.303.919 10.395 2.607 15.125zm346.499-15.125c0 8.34-6.785 15.125-15.125 15.125s-15.125-6.785-15.125-15.125v-45.125h-271.124v-391.75h301.375v436.875z"/><path d="m228.764 144.763v65.987h114.723v-65.987l7.913 4.527 14.897-26.04-29.047-16.617v-28.606h-30v11.443l-21.125-12.085-80.172 45.866 14.897 26.04zm84.722-17.163v53.15h-54.723v-53.15l27.361-15.653z"/></g></svg>