<svg id="line_Icons" height="512" viewBox="0 0 74 74" width="512" xmlns="http://www.w3.org/2000/svg" data-name="line Icons"><path d="m51.087 64.082a1 1 0 0 1 -1-1v-53.122l-12.674-5.317-10.643 4.187v54.252a1 1 0 0 1 -2 0v-54.934a1 1 0 0 1 .634-.931l11.655-4.585a1 1 0 0 1 .753.008l13.662 5.733a1 1 0 0 1 .613.922v53.787a1 1 0 0 1 -1 1z"/><path d="m37.425 64.082a1 1 0 0 1 -1-1v-59.519a1 1 0 0 1 2 0v59.519a1 1 0 0 1 -1 1z"/><path d="m67.232 64.082a1 1 0 0 1 -1-1v-31.43l-9.778-5.689h-5.367a1 1 0 0 1 0-2h5.637a1 1 0 0 1 .5.136l10.509 6.114a1 1 0 0 1 .5.864v32a1 1 0 0 1 -1.001 1.005z"/><path d="m56.724 64.082a1 1 0 0 1 -1-1v-38.119a1 1 0 0 1 2 0v38.119a1 1 0 0 1 -1 1z"/><path d="m5.229 64.082a1 1 0 0 1 -1-1v-31.145a1 1 0 0 1 1-1h20.541a1 1 0 0 1 0 2h-19.541v30.145a1 1 0 0 1 -1 1z"/><path d="m10.734 36.778h-2.125a1 1 0 0 1 0-2h2.125a1 1 0 0 1 0 2z"/><path d="m16.563 36.778h-2.126a1 1 0 0 1 0-2h2.126a1 1 0 0 1 0 2z"/><path d="m22.39 36.778h-2.125a1 1 0 0 1 0-2h2.125a1 1 0 1 1 0 2z"/><path d="m10.734 41.471h-2.125a1 1 0 0 1 0-2h2.125a1 1 0 0 1 0 2z"/><path d="m16.563 41.471h-2.126a1 1 0 0 1 0-2h2.126a1 1 0 0 1 0 2z"/><path d="m22.39 41.471h-2.125a1 1 0 1 1 0-2h2.125a1 1 0 0 1 0 2z"/><path d="m10.734 46.163h-2.125a1 1 0 0 1 0-2h2.125a1 1 0 0 1 0 2z"/><path d="m16.563 46.163h-2.126a1 1 0 0 1 0-2h2.126a1 1 0 0 1 0 2z"/><path d="m22.39 46.163h-2.125a1 1 0 0 1 0-2h2.125a1 1 0 1 1 0 2z"/><path d="m10.734 50.856h-2.125a1 1 0 0 1 0-2h2.125a1 1 0 0 1 0 2z"/><path d="m16.563 50.856h-2.126a1 1 0 0 1 0-2h2.126a1 1 0 0 1 0 2z"/><path d="m22.39 50.856h-2.125a1 1 0 0 1 0-2h2.125a1 1 0 1 1 0 2z"/><path d="m10.734 55.549h-2.125a1 1 0 0 1 0-2h2.125a1 1 0 1 1 0 2z"/><path d="m16.563 55.549h-2.126a1 1 0 1 1 0-2h2.126a1 1 0 1 1 0 2z"/><path d="m22.39 55.549h-2.125a1 1 0 1 1 0-2h2.125a1 1 0 0 1 0 2z"/><path d="m10.734 60.242h-2.125a1 1 0 0 1 0-2h2.125a1 1 0 0 1 0 2z"/><path d="m16.563 60.242h-2.126a1 1 0 0 1 0-2h2.126a1 1 0 0 1 0 2z"/><path d="m22.39 60.242h-2.125a1 1 0 0 1 0-2h2.125a1 1 0 1 1 0 2z"/><path d="m33.9 13.352a1 1 0 0 1 -1-1v-1.887a1 1 0 0 1 2 0v1.887a1 1 0 0 1 -1 1z"/><path d="m29.34 14.515a1 1 0 0 1 -1-1v-1.887a1 1 0 0 1 2 0v1.887a1 1 0 0 1 -1 1z"/><path d="m33.9 20.874a1 1 0 0 1 -1-1v-1.887a1 1 0 0 1 2 0v1.887a1 1 0 0 1 -1 1z"/><path d="m29.34 22.037a1 1 0 0 1 -1-1v-1.887a1 1 0 1 1 2 0v1.887a1 1 0 0 1 -1 1z"/><path d="m33.9 28.4a1 1 0 0 1 -1-1v-1.891a1 1 0 1 1 2 0v1.891a1 1 0 0 1 -1 1z"/><path d="m29.34 29.559a1 1 0 0 1 -1-1v-1.887a1 1 0 0 1 2 0v1.887a1 1 0 0 1 -1 1z"/><path d="m33.9 35.917a1 1 0 0 1 -1-1v-1.887a1 1 0 0 1 2 0v1.887a1 1 0 0 1 -1 1z"/><path d="m29.34 37.08a1 1 0 0 1 -1-1v-1.887a1 1 0 0 1 2 0v1.887a1 1 0 0 1 -1 1z"/><path d="m33.9 43.439a1 1 0 0 1 -1-1v-1.887a1 1 0 0 1 2 0v1.887a1 1 0 0 1 -1 1z"/><path d="m29.34 44.6a1 1 0 0 1 -1-1v-1.885a1 1 0 0 1 2 0v1.885a1 1 0 0 1 -1 1z"/><path d="m33.9 50.961a1 1 0 0 1 -1-1v-1.887a1 1 0 0 1 2 0v1.887a1 1 0 0 1 -1 1z"/><path d="m29.34 52.124a1 1 0 0 1 -1-1v-1.887a1 1 0 0 1 2 0v1.887a1 1 0 0 1 -1 1z"/><path d="m33.9 58.482a1 1 0 0 1 -1-1v-1.882a1 1 0 0 1 2 0v1.887a1 1 0 0 1 -1 .995z"/><path d="m29.34 59.646a1 1 0 0 1 -1-1v-1.888a1 1 0 0 1 2 0v1.887a1 1 0 0 1 -1 1.001z"/><path d="m40.8 12.4a1 1 0 0 1 -1-1v-1.885a1 1 0 0 1 2 0v1.885a1 1 0 0 1 -1 1z"/><path d="m44.177 13.675a1 1 0 0 1 -1-1v-1.886a1 1 0 1 1 2 0v1.887a1 1 0 0 1 -1 .999z"/><path d="m47.552 14.949a1 1 0 0 1 -1-1v-1.886a1 1 0 0 1 2 0v1.887a1 1 0 0 1 -1 .999z"/><path d="m40.8 19.9a1 1 0 0 1 -1-1v-1.89a1 1 0 0 1 2 0v1.89a1 1 0 0 1 -1 1z"/><path d="m44.177 21.17a1 1 0 0 1 -1-1v-1.886a1 1 0 0 1 2 0v1.886a1 1 0 0 1 -1 1z"/><path d="m47.552 22.444a1 1 0 0 1 -1-1v-1.886a1 1 0 0 1 2 0v1.887a1 1 0 0 1 -1 .999z"/><path d="m40.8 27.392a1 1 0 0 1 -1-1v-1.892a1 1 0 1 1 2 0v1.887a1 1 0 0 1 -1 1.005z"/><path d="m44.177 28.666a1 1 0 0 1 -1-1v-1.887a1 1 0 1 1 2 0v1.887a1 1 0 0 1 -1 1z"/><path d="m47.552 29.939a1 1 0 0 1 -1-1v-1.886a1 1 0 0 1 2 0v1.887a1 1 0 0 1 -1 .999z"/><path d="m40.8 34.887a1 1 0 0 1 -1-1v-1.887a1 1 0 0 1 2 0v1.887a1 1 0 0 1 -1 1z"/><path d="m44.177 36.161a1 1 0 0 1 -1-1v-1.887a1 1 0 0 1 2 0v1.887a1 1 0 0 1 -1 1z"/><path d="m47.552 37.435a1 1 0 0 1 -1-1v-1.887a1 1 0 0 1 2 0v1.887a1 1 0 0 1 -1 1z"/><path d="m40.8 42.382a1 1 0 0 1 -1-1v-1.882a1 1 0 0 1 2 0v1.887a1 1 0 0 1 -1 .995z"/><path d="m44.177 43.656a1 1 0 0 1 -1-1v-1.887a1 1 0 0 1 2 0v1.887a1 1 0 0 1 -1 1z"/><path d="m47.552 44.93a1 1 0 0 1 -1-1v-1.887a1 1 0 0 1 2 0v1.887a1 1 0 0 1 -1 1z"/><path d="m40.8 49.877a1 1 0 0 1 -1-1v-1.887a1 1 0 0 1 2 0v1.887a1 1 0 0 1 -1 1z"/><path d="m44.177 51.151a1 1 0 0 1 -1-1v-1.887a1 1 0 0 1 2 0v1.887a1 1 0 0 1 -1 1z"/><path d="m47.552 52.425a1 1 0 0 1 -1-1v-1.887a1 1 0 0 1 2 0v1.887a1 1 0 0 1 -1 1z"/><path d="m40.8 57.372a1 1 0 0 1 -1-1v-1.887a1 1 0 0 1 2 0v1.887a1 1 0 0 1 -1 1z"/><path d="m44.177 58.646a1 1 0 0 1 -1-1v-1.887a1 1 0 0 1 2 0v1.887a1 1 0 0 1 -1 1z"/><path d="m47.552 59.92a1 1 0 0 1 -1-1v-1.887a1 1 0 0 1 2 0v1.887a1 1 0 0 1 -1 1z"/><path d="m60.2 33.65a1 1 0 0 1 -1-1v-1.011a1 1 0 0 1 2 0v1.011a1 1 0 0 1 -1 1z"/><path d="m63.57 35.768a1 1 0 0 1 -1-1v-1.011a1 1 0 0 1 2 0v1.011a1 1 0 0 1 -1 1z"/><path d="m60.2 38.588a1 1 0 0 1 -1-1v-1.01a1 1 0 0 1 2 0v1.011a1 1 0 0 1 -1 .999z"/><path d="m63.57 40.706a1 1 0 0 1 -1-1v-1.006a1 1 0 0 1 2 0v1.011a1 1 0 0 1 -1 .995z"/><path d="m60.2 43.527a1 1 0 0 1 -1-1v-1.011a1 1 0 0 1 2 0v1.011a1 1 0 0 1 -1 1z"/><path d="m63.57 45.645a1 1 0 0 1 -1-1v-1.011a1 1 0 0 1 2 0v1.011a1 1 0 0 1 -1 1z"/><path d="m60.2 48.466a1 1 0 0 1 -1-1v-1.011a1 1 0 0 1 2 0v1.011a1 1 0 0 1 -1 1z"/><path d="m63.57 50.583a1 1 0 0 1 -1-1v-1.011a1 1 0 0 1 2 0v1.011a1 1 0 0 1 -1 1z"/><path d="m60.2 53.4a1 1 0 0 1 -1-1v-1.007a1 1 0 0 1 2 0v1.007a1 1 0 0 1 -1 1z"/><path d="m63.57 55.522a1 1 0 0 1 -1-1v-1.011a1 1 0 0 1 2 0v1.011a1 1 0 0 1 -1 1z"/><path d="m60.2 58.343a1 1 0 0 1 -1-1v-1.011a1 1 0 0 1 2 0v1.011a1 1 0 0 1 -1 1z"/><path d="m63.57 60.46a1 1 0 0 1 -1-1v-1.011a1 1 0 0 1 2 0v1.011a1 1 0 0 1 -1 1z"/><path d="m70.231 64.066h-68a1 1 0 1 1 0-2h68a1 1 0 0 1 0 2z"/></svg>