<svg id="Capa_1" enable-background="new 0 0 512 512" height="512" viewBox="0 0 512 512" width="512" xmlns="http://www.w3.org/2000/svg"><g><path d="m504.5 440.887h-8.532v-32.58c0-8.556-6.96-15.517-15.516-15.517h-.516v-48.613c0-8.556-6.96-15.516-15.516-15.516h-120.759v-45.506l21.852-21.852c2.929-2.929 2.929-7.677 0-10.606s-7.678-2.929-10.606 0l-11.245 11.245v-29.99c0-4.142-3.358-7.5-7.5-7.5s-7.5 3.358-7.5 7.5v64.284c-40.981-3.797-73.177-38.36-73.177-80.316 0-44.485 36.192-80.677 80.677-80.677 44.486 0 80.678 36.191 80.678 80.677 0 16.561-4.978 32.471-14.396 46.01-9.21 13.241-21.985 23.328-36.944 29.17-3.858 1.507-5.765 5.856-4.258 9.715 1.507 3.858 5.855 5.764 9.715 4.258 17.74-6.929 32.886-18.885 43.801-34.577 11.175-16.065 17.082-34.937 17.082-54.575 0-52.756-42.921-95.677-95.678-95.677s-95.677 42.92-95.677 95.677c0 50.233 38.912 91.547 88.177 95.385v17.357h-88.693c-8.556 0-15.516 6.96-15.516 15.516v48.613h-.516c-8.556 0-15.516 6.961-15.516 15.517v32.58h-17.661c-3.608-22.685-23.3-40.08-46.984-40.08-2.931 0-5.904.294-8.836.875-2.046.407-4.517-.392-6.604-2.135-2.864-2.393-5.92-4.514-9.125-6.352v-49.808c53.689-3.856 96.194-48.766 96.194-103.42 0-17.856-4.649-35.482-13.444-50.971-4.8-8.455-6.279-18.201-4.278-28.187 1.406-7.012 1.938-14.205 1.581-21.38-1.092-22.001-10.632-42.758-26.862-58.449-16.233-15.694-37.302-24.522-59.325-24.857-23.665-.368-46.013 8.584-62.875 25.191-16.865 16.609-26.152 38.792-26.152 62.46 0 6.39.71 12.788 2.111 19.018 1.931 8.587.702 17.139-3.46 24.081-10.513 17.536-15.548 37.653-14.561 58.175 1.98 41.177 29.692 78.376 68.958 92.566 3.896 1.408 8.194-.609 9.603-4.504 1.408-3.896-.609-8.195-4.505-9.603-33.641-12.158-57.38-43.978-59.074-79.18-.844-17.555 3.458-34.755 12.443-49.742 6.152-10.261 8.009-22.721 5.229-35.083-1.158-5.152-1.746-10.443-1.746-15.728 0-19.618 7.699-38.005 21.678-51.772 13.976-13.764 32.469-21.166 52.121-20.88 37.527.573 69.572 31.549 71.434 69.052.295 5.938-.145 11.89-1.307 17.688-2.683 13.382-.573 27.069 5.941 38.542 7.515 13.235 11.488 28.3 11.488 43.564 0 46.379-35.786 84.553-81.194 88.373v-72.343c0-4.142-3.358-7.5-7.5-7.5s-7.5 3.358-7.5 7.5v130.986c-5.365-1.455-10.929-2.212-16.548-2.212-32.537 0-59.431 24.56-63.156 56.112h-17.005c-4.142 0-7.5 3.358-7.5 7.5 0 4.143 3.358 7.5 7.5 7.5h497c4.142 0 7.5-3.357 7.5-7.5 0-4.141-3.358-7.499-7.5-7.499zm-23.532-32.58v32.58h-137.307v-33.097h136.791c.284 0 .516.232.516.517zm-137.307-15.517v-17.064h121.274v17.064zm-103.693-49.129h224.452c.285 0 .516.231.516.516v16.548h-225.484v-16.548c0-.284.231-.516.516-.516zm-.516 32.065h89.209v17.064h-89.209zm-16.033 32.581c0-.285.231-.517.516-.517h104.726v33.097h-105.242zm-85.565 8.089c1.974-.391 3.966-.589 5.92-.589 15.383 0 28.302 10.72 31.699 25.08h-56.264v-29.437c5.527 4.4 12.285 6.208 18.645 4.946zm-50.193-16.621c5.674 0 11.275 1.008 16.548 2.93v38.183h-64.58c3.617-23.257 23.777-41.113 48.032-41.113z"/></g></svg>