<svg id="Capa_1" enable-background="new 0 0 512 512" height="512" viewBox="0 0 512 512" width="512" xmlns="http://www.w3.org/2000/svg"><g><path d="m202.359 119.12v71.884c0 5.522 4.478 10 10 10h87.283c5.522 0 10-4.478 10-10v-71.884c0-5.522-4.478-10-10-10h-87.283c-5.523 0-10 4.477-10 10zm20 10h67.283v51.884h-67.283z"/><path d="m467.784 98.324-207.536-97.376c-2.691-1.264-5.805-1.264-8.496 0l-207.536 97.376c-5 2.346-7.151 8.301-4.805 13.301 2.344 4.999 8.299 7.152 13.301 4.805l8.387-3.935v120.002h-1.932c-5.522 0-10 4.478-10 10v46.746c0 5.522 4.478 10 10 10h1.932v148.989h-8.486c-5.522 0-10 4.478-10 10v43.768c0 5.522 4.478 10 10 10h406.775c5.522 0 10-4.478 10-10v-43.769c0-5.522-4.478-10-10-10h-8.486v-148.988h1.932c5.522 0 10-4.478 10-10v-46.746c0-5.522-4.478-10-10-10h-1.932v-120.003l8.387 3.935c1.374.645 2.818.949 4.241.949 3.758 0 7.358-2.128 9.06-5.754 2.346-4.999.194-10.955-4.806-13.3zm-386.685 30.796h67.283v51.884h-67.283zm361.734 123.377v26.746h-373.666v-26.746zm-361.734 91.726h67.283v42.005h-67.283zm368.289 147.777h-386.775v-23.769h386.775zm-152.762-43.768h-81.252v-104.009h81.252zm134.276-62.004h-67.283v-42.005h67.283zm0-62.005h-77.283c-5.522 0-10 4.478-10 10v62.005c0 5.522 4.478 10 10 10h77.283v42.004h-114.276v-114.009c0-5.522-4.478-10-10-10h-101.252c-5.522 0-10 4.478-10 10v114.009h-114.275v-42.004h77.283c5.522 0 10-4.478 10-10v-62.005c0-5.522-4.478-10-10-10h-77.283v-24.98h349.803zm0-143.22h-67.283v-51.883h67.283zm0-77.859v5.976h-77.283c-5.522 0-10 4.478-10 10v71.884c0 5.522 4.478 10 10 10h77.283v31.493h-349.803v-31.493h77.283c5.522 0 10-4.478 10-10v-71.884c0-5.522-4.478-10-10-10h-77.283v-5.976c0-.011 0-.022 0-.034l174.901-82.064 174.902 82.064z"/></g></svg>