<svg id="_x31_px" enable-background="new 0 0 24 24" height="512" viewBox="0 0 24 24" width="512" xmlns="http://www.w3.org/2000/svg"><g><path d="m20 19c-1.103 0-2-.897-2-2s.897-2 2-2 2 .897 2 2-.897 2-2 2zm0-3c-.551 0-1 .448-1 1s.449 1 1 1 1-.448 1-1-.449-1-1-1z"/></g><g><path d="m23.5 24c-.276 0-.5-.224-.5-.5v-1c0-.827-.673-1.5-1.5-1.5h-3c-.827 0-1.5.673-1.5 1.5v1c0 .276-.224.5-.5.5s-.5-.224-.5-.5v-1c0-1.379 1.122-2.5 2.5-2.5h3c1.378 0 2.5 1.121 2.5 2.5v1c0 .276-.224.5-.5.5z"/></g><g><path d="m14.5 20h-9.5c-1.103 0-2-.897-2-2v-7h-2c-.561 0-1-.439-1-1 0-.281.122-.559.326-.742l9.834-9.124c.191-.178.488-.178.68 0l3.16 2.93v-1.564c0-.276.224-.5.5-.5h3c.276 0 .5.224.5.5v5.272l2.68 2.491c.198.178.32.456.32.737 0 .561-.439 1-1 1h-2v2.5c0 .276-.224.5-.5.5s-.5-.224-.5-.5v-3c0-.276.224-.5.5-.5h2.5l-2.84-2.644c-.102-.094-.16-.227-.16-.366v-4.99h-2v2.21c0 .199-.118.379-.3.458-.184.08-.395.044-.54-.092l-3.66-3.394-9.5 8.814 2.5.004c.276 0 .5.224.5.5v7.5c0 .552.449 1 1 1h9.5c.276 0 .5.224.5.5s-.224.5-.5.5z"/></g></svg>